arm26_elbow_motion
version=1
nRows=333
nColumns=2
inDegrees=no
endheader
time	r_elbow_flex
12.371319	2.10220394
12.394427	2.07694697
12.412310	2.04816296
12.429742	2.01739736
12.460746	1.98634055
12.469113	1.95585738
12.478673	1.92517730
12.493790	1.89263644
12.512720	1.85964843
12.527066	1.82913453
12.549618	1.80076013
12.560801	1.77125203
12.579852	1.73789715
12.646496	1.70064574
12.650874	1.65970745
12.660374	1.61763333
12.677296	1.57222204
12.699823	1.52246211
12.730423	1.47048299
12.744026	1.41972448
12.762743	1.37195060
12.768361	1.32695397
12.778115	1.27982383
12.785573	1.23204673
12.797892	1.18553140
12.810749	1.13952961
12.819302	1.09201451
12.830482	1.04143103
12.848595	0.98954152
12.852214	0.93885120
12.878942	0.88901703
12.897611	0.83874612
12.911870	0.78860155
12.958516	0.73815483
12.969950	0.68832981
12.990638	0.63991434
13.006167	0.59396023
13.051223	0.55193475
13.063989	0.51519904
13.077199	0.48373347
13.096493	0.45874040
13.102834	0.44075487
13.112193	0.42914923
13.127787	0.42232264
13.144225	0.41899398
13.152758	0.41898040
13.162073	0.42373171
13.169432	0.43402501
13.181766	0.44946169
13.207906	0.47036258
13.211851	0.49603537
13.229593	0.52469411
13.244655	0.55554361
13.269635	0.58860272
13.277105	0.62353643
13.297869	0.65991377
13.304760	0.69716895
13.376211	0.73560661
13.385286	0.77638113
13.394843	0.81995283
13.407857	0.86485458
13.424120	0.90964253
13.444164	0.95405041
13.453168	0.99838083
13.466353	1.04278240
13.480275	1.08652238
13.496125	1.12894521
13.503334	1.17063950
13.513740	1.21247060
13.531193	1.25463343
13.538303	1.29712483
13.596808	1.33986643
13.607977	1.38242356
13.614740	1.42430665
13.631823	1.46512116
13.644216	1.50519619
13.654290	1.54523843
13.663889	1.58472711
13.730724	1.62291654
13.746232	1.65988553
13.761070	1.69588748
13.779334	1.73087824
13.787845	1.76417460
13.798166	1.79333270
13.809662	1.81807599
13.819005	1.83904300
13.829288	1.85772886
13.838825	1.87513963
13.860785	1.89134249
13.869795	1.90659092
13.878490	1.92228801
13.893448	1.93849767
13.910317	1.95537230
13.917324	1.97178155
13.958587	1.98725380
13.966887	2.00294351
13.984603	2.01898911
14.007658	2.03595095
14.023915	2.05425383
14.033943	2.07355924
14.044847	2.09409859
14.113822	2.11554365
14.130277	2.13658926
14.139057	2.15614409
14.164318	2.17305433
14.177819	2.18653259
14.195052	2.19664587
14.210587	2.20337175
14.218719	2.20671649
14.231844	2.20699435
14.247845	2.20513626
14.258565	2.20177543
14.276809	2.19716458
14.284373	2.19109044
14.300316	2.18325580
14.306721	2.17356457
14.347199	2.16229472
14.361776	2.14942176
14.378163	2.13426823
14.392270	2.11724246
14.428919	2.09949999
14.434538	2.08196024
14.479385	2.06467612
14.485572	2.04770972
14.497946	2.03101190
14.509959	2.01530230
14.527366	2.00072511
14.535089	1.98644594
14.546177	1.97186547
14.561245	1.95745899
14.568848	1.94255877
14.578745	1.92772216
14.593714	1.91264759
14.610250	1.89524815
14.628142	1.87552372
14.643516	1.85578790
14.654519	1.83650079
14.663644	1.81700510
14.677513	1.79567116
14.698323	1.77285800
14.714161	1.75091747
14.731938	1.72983170
14.781110	1.70765683
14.793936	1.68102332
14.800763	1.65286242
14.848662	1.62425178
14.853820	1.59477876
14.863747	1.56266525
14.876688	1.52840328
14.883074	1.49315254
14.907668	1.45912846
14.923821	1.42418987
14.945179	1.39002850
14.960339	1.35717560
14.978521	1.32572805
14.985071	1.29388040
15.011327	1.25992705
15.022027	1.22509635
15.041959	1.19033988
15.057012	1.15444552
15.066208	1.11731393
15.074025	1.07904303
15.091357	1.04016531
15.098658	1.00084270
15.123064	0.96011318
15.139146	0.91748979
15.176507	0.87384851
15.194139	0.82935127
15.211124	0.78466922
15.219467	0.74015814
15.244945	0.69609690
15.260433	0.65424523
15.279585	0.61607488
15.290704	0.58120020
15.310638	0.54964415
15.319307	0.52207603
15.338744	0.49962825
15.355964	0.48359558
15.373866	0.47278139
15.396174	0.46562148
15.404536	0.46139074
15.430625	0.46009825
15.443380	0.46128047
15.454076	0.46386282
15.463909	0.46633489
15.478295	0.46874764
15.487224	0.47121299
15.495734	0.47368792
15.512408	0.47598625
15.628905	0.47796233
15.640929	0.47988299
15.659401	0.48144148
15.666855	0.48233341
15.683599	0.48289231
15.700041	0.48300445
15.706449	0.48268012
15.723985	0.48208940
15.742388	0.48108981
15.763278	0.48029019
15.771667	0.48001839
15.793544	0.48012022
15.811574	0.48045171
15.828441	0.48083574
15.848844	0.48142453
15.850884	0.48247682
15.866341	0.48379691
15.877801	0.48482516
15.893509	0.48527302
15.926801	0.48533846
15.936444	0.48509298
15.944756	0.48434655
15.959473	0.48292256
15.978178	0.48096528
15.984090	0.47875510
15.993908	0.47650926
16.009363	0.47454430
16.033988	0.47307840
16.082538	0.47217184
16.088614	0.47194837
16.100601	0.47241778
16.110045	0.47344716
16.127684	0.47467205
16.137932	0.47573157
16.162088	0.47647691
16.176521	0.47689811
16.196789	0.47706442
16.203064	0.47695227
16.218472	0.47653455
16.228466	0.47589058
16.237668	0.47511677
16.262918	0.47428911
16.271673	0.47356866
16.287074	0.47304414
16.305933	0.47260070
16.322136	0.47232197
16.382805	0.47218233
16.393034	0.47213302
16.410830	0.47205641
16.428909	0.47199915
16.444817	0.47183509
16.456534	0.47159661
16.462638	0.47129132
16.477607	0.47102196
16.492961	0.47083840
16.502989	0.47084797
16.516187	0.47089229
16.564305	0.47094287
16.593319	0.47108337
16.606325	0.47131559
16.621973	0.47160252
16.642554	0.47196301
16.664659	0.47242330
16.690578	0.47288763
16.706595	0.47341878
16.722311	0.47400367
16.738779	0.47459663
16.754408	0.47520340
16.770082	0.47566361
16.785882	0.47581565
16.802073	0.47582876
16.811697	0.47575443
16.826642	0.47550359
16.837395	0.47510110
16.869158	0.47461337
16.885797	0.47410625
16.909948	0.47380342
16.926466	0.47367972
16.934113	0.47359176
16.959479	0.47355780
16.977079	0.47353910
16.993409	0.47349691
17.050478	0.47345573
17.075603	0.47329571
17.092383	0.47305146
17.108162	0.47274218
17.123710	0.47242089
17.135816	0.47210769
17.151576	0.47174700
17.161674	0.47139138
17.178128	0.47110108
17.186239	0.47081247
17.195665	0.47048122
17.223213	0.47010604
17.228190	0.46975278
17.243998	0.46942995
17.252056	0.46914619
17.268052	0.46891611
17.279191	0.46868270
17.294068	0.46848398
17.310840	0.46840395
17.330104	0.46835301
17.345772	0.46836619
17.360668	0.46850614
17.372851	0.46871710
17.388752	0.46890308
17.411310	0.46915378
17.419393	0.46939912
17.437409	0.46959907
17.451343	0.46962070
17.477587	0.46936314
17.483699	0.46895765
17.499950	0.46859631
17.536177	0.46812991
17.544580	0.46749755
17.570420	0.46679133
17.578048	0.46614211
17.586139	0.46554823
17.602412	0.46497031
17.613033	0.46440242
17.624009	0.46394449
17.636441	0.46362949
17.652386	0.46342502
17.676885	0.46332897
17.697221	0.46334606
17.704964	0.46342826
17.728648	0.46354352
17.771233	0.46363922
17.795328	0.46366266
17.809812	0.46363338
17.835856	0.46356774
17.845802	0.46352941
17.853712	0.46344861
17.877771	0.46326600
17.917271	0.46299329
17.926242	0.46269795
17.942511	0.46242182
17.952286	0.46216917
17.960222	0.46184050
17.971097	0.46141947
17.976813	0.46101182
17.992166	0.46069767
18.041404	0.46041047
18.060438	0.46008899
